<svg width="48" height="48" viewBox="0 0 48 48" fill="none" xmlns="http://www.w3.org/2000/svg">
<path d="M36 12C38.3734 14.3734 39.9897 17.3972 40.6445 20.6892C41.2993 23.9812 40.9632 27.3934 39.6788 30.4944C38.3943 33.5953 36.2191 36.2458 33.4284 38.1105C30.6376 39.9753 27.3565 40.9706 24 40.9706C20.6435 40.9706 17.3625 39.9753 14.5717 38.1105C11.7809 36.2458 9.60571 33.5953 8.32125 30.4944C7.03679 27.3934 6.70071 23.9812 7.35552 20.6892C8.01034 17.3972 9.62663 14.3734 12 12L13.9771 13.9771C11.9948 15.9595 10.6448 18.4851 10.0979 21.2347C9.55098 23.9843 9.83168 26.8343 10.9045 29.4243C11.9773 32.0144 13.7941 34.2281 16.1251 35.7856C18.4561 37.3431 21.1966 38.1745 24 38.1745C26.8035 38.1745 29.5439 37.3431 31.8749 35.7856C34.2059 34.2281 36.0227 32.0144 37.0955 29.4243C38.1683 26.8343 38.449 23.9843 37.9021 21.2347C37.3552 18.4851 36.0052 15.9595 34.0229 13.9771L36 12Z" fill="white"/>
<rect x="22" y="4" width="3" height="20" fill="white"/>
</svg>
